<?xml version="1.0" encoding="UTF-8"?>
<svg width="1436px" height="236px" viewBox="0 0 1436 236" version="1.1" xmlns="http://www.w3.org/2000/svg" xmlns:xlink="http://www.w3.org/1999/xlink">
    <!-- Generator: Sketch 50.2 (55047) - http://www.bohemiancoding.com/sketch -->
    <title>logo-v1-blue</title>
    <desc>Created with Sketch.</desc>
    <defs></defs>
    <g id="logo-v1-blue" stroke="none" stroke-width="1" fill="none" fill-rule="evenodd">
        <g id="Group" transform="translate(33.000000, 14.000000)">
            <path d="M23.5,20.5 L85.5,58.5" id="Line" stroke="#D8D8D8" stroke-width="3" stroke-linecap="square"></path>
            <path d="M21.5,20.5 L76.5,72.5" id="Line" stroke="#D8D8D8" stroke-width="3" stroke-linecap="square"></path>
            <path d="M24.5,20.5 L100.5,44.5" id="Line" stroke="#D8D8D8" stroke-width="3" stroke-linecap="square"></path>
            <path d="M20.5,186.5 L99.5,158.5" id="Line" stroke="#D8D8D8" stroke-width="3" stroke-linecap="square"></path>
            <path d="M20.5,186.5 L82.5,142.5" id="Line" stroke="#D8D8D8" stroke-width="3" stroke-linecap="square"></path>
            <path d="M21.5,185.5 L77.5,129.5" id="Line" stroke="#D8D8D8" stroke-width="3" stroke-linecap="square"></path>
            <path d="M26.5,79.5 L79.5,71.5" id="Line" stroke="#D8D8D8" stroke-width="3" stroke-linecap="square"></path>
            <path d="M26.5,131.5 L73.5,118.5" id="Line" stroke="#D8D8D8" stroke-width="3" stroke-linecap="square"></path>
            <path d="M26.5,131.5 L71.5,107.5" id="Line" stroke="#D8D8D8" stroke-width="3" stroke-linecap="square"></path>
            <path d="M26.5,132.5 L79.5,136.5" id="Line" stroke="#D8D8D8" stroke-width="3" stroke-linecap="square"></path>
            <path d="M26.5,82.5 L70.5,104.5" id="Line" stroke="#D8D8D8" stroke-width="3" stroke-linecap="square"></path>
            <path d="M25.5,80.5 L74.5,88.5" id="Line" stroke="#D8D8D8" stroke-width="3" stroke-linecap="square"></path>
            <path d="M88.5,60.5 L140.5,95.5" id="Line" stroke="#006EFA" stroke-width="3" stroke-linecap="square" transform="translate(114.500000, 78.000000) scale(-1, -1) translate(-114.500000, -78.000000) "></path>
            <path d="M78.5,74.5 L143.5,135.5" id="Line" stroke="#006EFA" stroke-width="3" stroke-linecap="square" transform="translate(111.000000, 105.000000) scale(-1, -1) translate(-111.000000, -105.000000) "></path>
            <path d="M103.5,45.5 L142.5,57.5" id="Line" stroke="#006EFA" stroke-width="3" stroke-linecap="square" transform="translate(123.000000, 51.500000) scale(-1, -1) translate(-123.000000, -51.500000) "></path>
            <path d="M101.5,157.5 L143.5,143.5" id="Line" stroke="#006EFA" stroke-width="3" stroke-linecap="square" transform="translate(122.500000, 150.500000) scale(-1, -1) translate(-122.500000, -150.500000) "></path>
            <path d="M84.5,140.5 L143.5,101.5" id="Line" stroke="#006EFA" stroke-width="3" stroke-linecap="square" transform="translate(114.000000, 121.000000) scale(-1, -1) translate(-114.000000, -121.000000) "></path>
            <path d="M78.5,128.5 L143.5,63.5" id="Line" stroke="#006EFA" stroke-width="3" stroke-linecap="square" transform="translate(111.000000, 96.000000) scale(-1, -1) translate(-111.000000, -96.000000) "></path>
            <path d="M80.5,71.5 L141.5,59.5" id="Line" stroke="#006EFA" stroke-width="3" stroke-linecap="square" transform="translate(111.000000, 65.500000) scale(-1, -1) translate(-111.000000, -65.500000) "></path>
            <path d="M74.5,118.5 L140.5,100.5" id="Line" stroke="#006EFA" stroke-width="3" stroke-linecap="square" transform="translate(107.500000, 109.500000) scale(-1, -1) translate(-107.500000, -109.500000) "></path>
            <path d="M73.5,106.5 L142.5,61.5" id="Line" stroke="#006EFA" stroke-width="3" stroke-linecap="square" transform="translate(108.000000, 84.000000) scale(-1, -1) translate(-108.000000, -84.000000) "></path>
            <path d="M82.5,136.5 L140.5,141.5" id="Line" stroke="#006EFA" stroke-width="3" stroke-linecap="square" transform="translate(111.500000, 139.000000) scale(-1, -1) translate(-111.500000, -139.000000) "></path>
            <path d="M73.5,105.5 L142.5,138.5" id="Line" stroke="#006EFA" stroke-width="3" stroke-linecap="square" transform="translate(108.000000, 122.000000) scale(-1, -1) translate(-108.000000, -122.000000) "></path>
            <path d="M74.5,88.5 L142.5,98.5" id="Line" stroke="#006EFA" stroke-width="3" stroke-linecap="square" transform="translate(108.500000, 93.500000) scale(-1, -1) translate(-108.500000, -93.500000) "></path>
            <circle id="Oval" stroke="#000000" stroke-width="2.5" cx="141" cy="102" r="69"></circle>
            <circle id="Path" fill="#D8D8D8" cx="15" cy="15" r="15"></circle>
            <circle id="Path" fill="#D8D8D8" cx="15" cy="80" r="15"></circle>
            <circle id="Path" fill="#D8D8D8" cx="15" cy="131" r="15"></circle>
            <circle id="Path" fill="#D8D8D8" cx="15" cy="188" r="15"></circle>
            <circle id="Path" fill="#006EFA" cx="155" cy="58" r="15"></circle>
            <circle id="Path" fill="#006EFA" cx="155" cy="100" r="15"></circle>
            <circle id="Path" fill="#006EFA" cx="155" cy="144" r="15"></circle>
        </g>
        <text id="Fluid-Data-Stream" font-family="Avenir-Heavy, Avenir" font-size="140" font-weight="600" letter-spacing="-0.315" fill="#006EFA">
            <tspan x="254" y="160">Fluid Data Stream</tspan>
        </text>
    </g>
</svg>